<?xml version="1.0" encoding="UTF-8" standalone="no"?>
<!-- Created with Inkscape (http://www.inkscape.org/) -->

<svg
   version="1.1"
   id="svg1"
   width="48"
   height="48"
   viewBox="0 0 48 48"
   xml:space="preserve"
   xmlns="http://www.w3.org/2000/svg"
   xmlns:svg="http://www.w3.org/2000/svg"><defs
     id="defs1" /><g
     id="g1"><g
       id="g57"><path
         d="m 23.953125,11.095703 c -0.463358,0 -0.925002,0.222499 -1.15625,0.669922 l -2.363281,4.568359 c -0.126207,0.244192 -0.357667,0.410506 -0.628907,0.455078 L 14.732422,17.625 c -0.993969,0.163342 -1.424929,1.484789 -0.716797,2.201172 l 3.615234,3.658203 c 0.193241,0.195491 0.281661,0.468496 0.240235,0.740234 l -0.775391,5.082032 c -0.151812,0.995797 0.972901,1.811478 1.873047,1.359375 l 4.595703,-2.304688 c 0.245636,-0.123368 0.531708,-0.123368 0.777344,0 l 4.595703,2.304688 c 0.900146,0.452103 2.02486,-0.363578 1.873047,-1.359375 l -0.773438,-5.082032 c -0.04143,-0.271738 0.04699,-0.544743 0.240235,-0.740234 l 3.613281,-3.658203 C 34.598757,19.109789 34.167797,17.788338 33.173828,17.625 l -5.072266,-0.835938 c -0.271239,-0.04457 -0.502697,-0.210886 -0.628906,-0.455078 l -2.363281,-4.568359 c -0.231248,-0.447423 -0.692892,-0.669922 -1.15625,-0.669922 z m 0,2.158203 1.998047,3.863281 c 0.373945,0.723518 1.069386,1.231218 1.873047,1.363282 l 4.291015,0.707031 -3.05664,3.09375 c -0.57255,0.579222 -0.839542,1.396034 -0.716797,2.201172 l 0.65625,4.300781 -3.888672,-1.955078 c -0.727802,-0.36554 -1.584698,-0.36554 -2.3125,0 l -3.888672,1.955078 0.65625,-4.300781 c 0.122745,-0.805138 -0.144238,-1.62195 -0.716797,-2.201172 l -3.05664,-3.09375 4.291015,-0.707031 c 0.803661,-0.132059 1.499102,-0.639764 1.873047,-1.363282 z"
         style="fill:#4d4d4d;paint-order:fill markers stroke"
         id="path56" /><path
         d="m 35.750006,22.461198 c -0.282026,0.02365 -0.552534,0.181717 -0.670448,0.465856 l -1.203306,2.899756 c -0.0068,0.01624 -0.01922,0.03002 -0.02755,0.04543 -0.172427,0.45763 -0.326287,0.917584 -0.462685,1.377465 l 0.385982,-0.09509 c 0.482412,-0.121406 0.876434,-0.464974 1.067109,-0.924435 l 1.0209,-2.457183 1.413914,2.253011 c 0.264531,0.421288 0.712217,0.694283 1.208108,0.733646 l 2.647833,0.209161 -1.700726,2.039875 c -0.318924,0.381767 -0.441435,0.891986 -0.325631,1.375772 l 0.618667,2.586252 -2.46463,-0.992835 c -0.461636,-0.185343 -0.984792,-0.141473 -1.409116,0.118162 l -2.264865,1.389428 0.177367,-2.653006 c 0.03361,-0.496315 -0.170187,-0.979171 -0.548257,-1.302492 l -0.308313,-0.264222 c -0.08272,0.456321 -0.144721,0.915898 -0.192466,1.374404 0.0068,0.04043 0.0095,0.083 0.0066,0.124889 l -0.213613,3.132321 c -0.04157,0.613842 0.684924,1.050706 1.209727,0.729589 l 2.679316,-1.63586 c 0.143209,-0.08763 0.319092,-0.102382 0.474896,-0.03982 l 2.912388,1.166966 c 0.570952,0.229232 1.216499,-0.322686 1.073274,-0.921031 L 40.12025,30.144368 c -0.03908,-0.163281 0.0042,-0.337204 0.111837,-0.466054 l 2.012766,-2.409038 c 0.394444,-0.472171 0.06474,-1.2577 -0.548583,-1.306384 l -3.129256,-0.24719 c -0.16735,-0.01328 -0.319587,-0.105774 -0.408868,-0.247951 l -1.669465,-2.658859 c -0.163576,-0.260524 -0.456645,-0.371343 -0.738669,-0.347694 z"
         style="baseline-shift:baseline;display:inline;overflow:visible;vector-effect:none;fill:#4d4d4d;paint-order:fill markers stroke;enable-background:accumulate;stop-color:#000000;stop-opacity:1"
         id="path55" /></g><g
       id="g60"
       transform="matrix(-1,0,0,1,48,0)"><path
         id="path59"
         d="m 23.953125,11.095703 c -0.463358,0 -0.925002,0.222499 -1.15625,0.669922 l -2.363281,4.568359 c -0.126207,0.244192 -0.357667,0.410506 -0.628907,0.455078 L 14.732422,17.625 c -0.993969,0.163342 -1.424929,1.484789 -0.716797,2.201172 l 3.615234,3.658203 c 0.193241,0.195491 0.281661,0.468496 0.240235,0.740234 l -0.775391,5.082032 c -0.151812,0.995797 0.972901,1.811478 1.873047,1.359375 l 4.595703,-2.304688 c 0.245636,-0.123368 0.531708,-0.123368 0.777344,0 l 4.595703,2.304688 c 0.900146,0.452103 2.02486,-0.363578 1.873047,-1.359375 l -0.773438,-5.082032 c -0.04143,-0.271738 0.04699,-0.544743 0.240235,-0.740234 l 3.613281,-3.658203 C 34.598757,19.109789 34.167797,17.788338 33.173828,17.625 l -5.072266,-0.835938 c -0.271239,-0.04457 -0.502697,-0.210886 -0.628906,-0.455078 l -2.363281,-4.568359 c -0.231248,-0.447423 -0.692892,-0.669922 -1.15625,-0.669922 z m 0,2.158203 1.998047,3.863281 c 0.373945,0.723518 1.069386,1.231218 1.873047,1.363282 l 4.291015,0.707031 -3.05664,3.09375 c -0.57255,0.579222 -0.839542,1.396034 -0.716797,2.201172 l 0.65625,4.300781 -3.888672,-1.955078 c -0.727802,-0.36554 -1.584698,-0.36554 -2.3125,0 l -3.888672,1.955078 0.65625,-4.300781 c 0.122745,-0.805138 -0.144238,-1.62195 -0.716797,-2.201172 l -3.05664,-3.09375 4.291015,-0.707031 c 0.803661,-0.132059 1.499102,-0.639764 1.873047,-1.363282 z"
         style="fill:#4d4d4d;paint-order:fill markers stroke" /><path
         id="path60"
         d="m 35.750006,22.461198 c -0.282026,0.02365 -0.552534,0.181717 -0.670448,0.465856 l -1.203306,2.899756 c -0.0068,0.01624 -0.01922,0.03002 -0.02755,0.04543 -0.172427,0.45763 -0.326287,0.917584 -0.462685,1.377465 l 0.385982,-0.09509 c 0.482412,-0.121406 0.876434,-0.464974 1.067109,-0.924435 l 1.0209,-2.457183 1.413914,2.253011 c 0.264531,0.421288 0.712217,0.694283 1.208108,0.733646 l 2.647833,0.209161 -1.700726,2.039875 c -0.318924,0.381767 -0.441435,0.891986 -0.325631,1.375772 l 0.618667,2.586252 -2.46463,-0.992835 c -0.461636,-0.185343 -0.984792,-0.141473 -1.409116,0.118162 l -2.264865,1.389428 0.177367,-2.653006 c 0.03361,-0.496315 -0.170187,-0.979171 -0.548257,-1.302492 l -0.308313,-0.264222 c -0.08272,0.456321 -0.144721,0.915898 -0.192466,1.374404 0.0068,0.04043 0.0095,0.083 0.0066,0.124889 l -0.213613,3.132321 c -0.04157,0.613842 0.684924,1.050706 1.209727,0.729589 l 2.679316,-1.63586 c 0.143209,-0.08763 0.319092,-0.102382 0.474896,-0.03982 l 2.912388,1.166966 c 0.570952,0.229232 1.216499,-0.322686 1.073274,-0.921031 L 40.12025,30.144368 c -0.03908,-0.163281 0.0042,-0.337204 0.111837,-0.466054 l 2.012766,-2.409038 c 0.394444,-0.472171 0.06474,-1.2577 -0.548583,-1.306384 l -3.129256,-0.24719 c -0.16735,-0.01328 -0.319587,-0.105774 -0.408868,-0.247951 l -1.669465,-2.658859 c -0.163576,-0.260524 -0.456645,-0.371343 -0.738669,-0.347694 z"
         style="baseline-shift:baseline;display:inline;overflow:visible;vector-effect:none;fill:#4d4d4d;paint-order:fill markers stroke;enable-background:accumulate;stop-color:#000000;stop-opacity:1" /></g></g></svg>
